<svg width="23" height="23" fill="none" xmlns="http://www.w3.org/2000/svg"><path fill-rule="evenodd" clip-rule="evenodd" d="M12.458 19.167a.961.961 0 0 0 .959-.959.961.961 0 0 0-.959-.958.961.961 0 0 0-.958.958c0 .527.431.959.958.959zm6.709-17.25V.958A.961.961 0 0 0 18.208 0a.961.961 0 0 0-.958.958v.959H5.75V.958A.961.961 0 0 0 4.792 0a.961.961 0 0 0-.959.958v.959H0V23h23V1.917h-3.833zm1.916 19.166H1.917V7.667h19.166v13.416zM12.458 11.5a.961.961 0 0 0 .959-.958.961.961 0 0 0-.959-.959.961.961 0 0 0-.958.959.96.96 0 0 0 .958.958zm3.834 3.833a.961.961 0 0 0 .958-.958.961.961 0 0 0-.958-.958.961.961 0 0 0-.959.958c0 .527.432.958.959.958zm0-3.833a.961.961 0 0 0 .958-.958.961.961 0 0 0-.958-.959.961.961 0 0 0-.959.959c0 .527.432.958.959.958zm-3.834 3.833a.961.961 0 0 0 .959-.958.961.961 0 0 0-.959-.958.961.961 0 0 0-.958.958.96.96 0 0 0 .958.958zm-7.666 0a.961.961 0 0 0 .958-.958.961.961 0 0 0-.958-.958.961.961 0 0 0-.959.958c0 .527.432.958.959.958zM8.625 11.5a.961.961 0 0 0 .958-.958.961.961 0 0 0-.958-.959.961.961 0 0 0-.958.959c0 .527.43.958.958.958zm-3.833 7.667a.961.961 0 0 0 .958-.959.961.961 0 0 0-.958-.958.961.961 0 0 0-.959.958c0 .527.432.959.959.959zm3.833-3.834a.961.961 0 0 0 .958-.958.961.961 0 0 0-.958-.958.961.961 0 0 0-.958.958c0 .527.43.958.958.958zm0 3.834a.961.961 0 0 0 .958-.959.961.961 0 0 0-.958-.958.961.961 0 0 0-.958.958c0 .527.43.959.958.959z" fill="#3D7AB6"/></svg>