<svg width="20" height="23" fill="none" xmlns="http://www.w3.org/2000/svg"><path fill-rule="evenodd" clip-rule="evenodd" d="M12.267 1.917A2.854 2.854 0 0 0 9.583 0C8.338 0 7.283.815 6.9 1.917H0V23h19.167V1.917h-6.9zm-2.684 0a.96.96 0 0 1 .959.958.961.961 0 0 1-.959.958.961.961 0 0 1-.958-.958.96.96 0 0 1 .958-.958zm7.667 19.166H1.917V3.833h2.875v.959c0 .527.43.958.958.958h7.667a.961.961 0 0 0 .958-.958v-.959h2.875v17.25zM14.375 11.5H4.792a.961.961 0 0 0-.959.958c0 .527.432.959.959.959h9.583a.961.961 0 0 0 .958-.959.961.961 0 0 0-.958-.958zM4.792 7.667a.961.961 0 0 0-.959.958c0 .527.432.958.959.958h9.583a.961.961 0 0 0 .958-.958.961.961 0 0 0-.958-.958H4.792z" fill="#3D7AB6"/></svg>