<svg width="18" height="23" fill="none" xmlns="http://www.w3.org/2000/svg"><path fill-rule="evenodd" clip-rule="evenodd" d="M16.292 3.833h-3.834V1.917A1.922 1.922 0 0 0 10.542 0H6.708a1.922 1.922 0 0 0-1.916 1.917v1.916H.958A.961.961 0 0 0 0 4.792a.96.96 0 0 0 .958.958h15.334a.961.961 0 0 0 .958-.958.961.961 0 0 0-.958-.959zm-5.75 0H6.708v-.958c0-.527.432-.958.959-.958h1.916a.96.96 0 0 1 .959.958v.958zm-8.625 17.25c0 1.055.862 1.917 1.916 1.917h9.584a1.922 1.922 0 0 0 1.916-1.917V7.667H1.917v13.416z" fill="#FF5C5C"/></svg>