<svg width="23" height="23" fill="none" xmlns="http://www.w3.org/2000/svg"><path fill-rule="evenodd" clip-rule="evenodd" d="M11.5 0C5.127 0 0 5.127 0 11.5S5.127 23 11.5 23 23 17.873 23 11.5 17.873 0 11.5 0zm0 21.083c-5.27 0-9.583-4.312-9.583-9.583 0-5.27 4.312-9.583 9.583-9.583 5.27 0 9.583 4.312 9.583 9.583 0 5.27-4.312 9.583-9.583 9.583zm3.833-10.541h-2.875V5.75a.961.961 0 0 0-.958-.958.961.961 0 0 0-.958.958v5.75c0 .527.43.958.958.958h3.833a.961.961 0 0 0 .959-.958.961.961 0 0 0-.959-.958z" fill="#3D7AB6"/></svg>