<svg width="18" height="18" fill="none" xmlns="http://www.w3.org/2000/svg"><path d="M18 9c0-4.95-4.05-9-9-9S0 4.05 0 9s4.05 9 9 9 9-4.05 9-9zM9.9 9c0 .45-.394.844-.844.844A.865.865 0 0 1 8.213 9V4.556c0-.45.393-.844.843-.844.45 0 .844.394.844.844V9zm4.894 0A5.785 5.785 0 0 1 9 14.794 5.785 5.785 0 0 1 3.206 9c0-1.575.619-3.037 1.688-4.106.168-.169.393-.225.619-.225.224 0 .45.056.618.225.338.337.338.9 0 1.181C5.344 6.862 4.95 7.875 4.95 9c0 2.25 1.856 4.106 4.106 4.106S13.163 11.25 13.163 9c0-1.069-.45-2.138-1.182-2.925-.337-.338-.337-.9 0-1.181.338-.338.9-.338 1.181 0A5.929 5.929 0 0 1 14.794 9z" fill="#3D7AB6"/></svg>