<svg width="28" height="24" fill="none" xmlns="http://www.w3.org/2000/svg"><path fill-rule="evenodd" clip-rule="evenodd" d="M16.123.577c-6.357 0-11.558 5.2-11.558 11.558 0 .23 0 .404.058.578L1.445 9.476 0 10.921 5.779 16.7l5.779-5.779-1.445-1.445-3.178 3.121v-.578c0-5.085 4.16-9.246 9.246-9.246 5.085 0 9.246 4.16 9.246 9.246s-4.16 9.246-9.246 9.246a9.177 9.177 0 0 1-7.802-4.334l-1.675 1.676a11.501 11.501 0 0 0 9.477 4.97c6.357 0 11.558-5.201 11.558-11.558S22.479.577 16.123.577z" fill="#3D7AB6"/></svg>