<svg width="80" height="80" viewBox="0 0 80 80" fill="none" xmlns="http://www.w3.org/2000/svg">
<path fill-rule="evenodd" clip-rule="evenodd" d="M80.0004 0H72.0007V3.99963H76.0007V76.0004H72.0007V80H80.0004V0ZM8 0H0V80H8V76.0004H4V3.99963H8V0ZM29.5003 48.7001V70.0999L40.1985 61.9914L50.5005 70.0999V48.7001H58.0005V12.6997H22.0002V48.7001H29.5003ZM46.5005 49.0001V61.8606L40.2446 56.937L33.5003 62.049C33.5003 62.049 33.5003 54.0389 33.5003 49.0001H46.5005ZM54.0005 16.6994V44.7004C54.0005 44.7004 32.71 44.7004 26.0002 44.7004V16.6994H54.0005ZM31.4764 31.7391L38.1821 38.4448L50.1419 26.4854L47.3135 23.657L38.1821 32.7879L34.3049 28.9107L31.4764 31.7391Z" fill="white"/>
</svg>
