<svg width="16" height="16" viewBox="0 0 16 16" fill="none" xmlns="http://www.w3.org/2000/svg">
<path d="M9.49907 5.99941V6.99932C9.49907 7.20555 9.33034 7.37428 9.12411 7.37428H7.37428V9.12411C7.37428 9.33034 7.20555 9.49907 6.99932 9.49907H5.99941C5.79318 9.49907 5.62445 9.33034 5.62445 9.12411V7.37428H3.87462C3.66839 7.37428 3.49966 7.20555 3.49966 6.99932V5.99941C3.49966 5.79318 3.66839 5.62445 3.87462 5.62445H5.62445V3.87462C5.62445 3.66839 5.79318 3.49966 5.99941 3.49966H6.99932C7.20555 3.49966 7.37428 3.66839 7.37428 3.87462V5.62445H9.12411C9.33034 5.62445 9.49907 5.79318 9.49907 5.99941ZM15.7797 14.8954L14.8954 15.7797C14.6017 16.0734 14.1267 16.0734 13.8361 15.7797L10.7177 12.6644C10.5771 12.5238 10.499 12.3332 10.499 12.1332V11.6239C9.39596 12.4863 8.00859 12.9987 6.49937 12.9987C2.90909 12.9987 0 10.0896 0 6.49937C0 2.90909 2.90909 0 6.49937 0C10.0896 0 12.9987 2.90909 12.9987 6.49937C12.9987 8.00859 12.4863 9.39596 11.6239 10.499H12.1332C12.3332 10.499 12.5238 10.5771 12.6644 10.7177L15.7797 13.833C16.0703 14.1267 16.0703 14.6017 15.7797 14.8954ZM10.749 6.49937C10.749 4.14959 8.84914 2.24978 6.49937 2.24978C4.14959 2.24978 2.24978 4.14959 2.24978 6.49937C2.24978 8.84914 4.14959 10.749 6.49937 10.749C8.84914 10.749 10.749 8.84914 10.749 6.49937Z" fill="white"/>
</svg>
