<svg width="93" height="98" viewBox="0 0 93 98" fill="none" xmlns="http://www.w3.org/2000/svg">
<path d="M44.9707 55.8462H83.4996V95.6853H92.1677V48.4883H44.9707V55.8462Z" fill="white"/>
<path d="M48.379 0.96875C19.6092 0.96875 0 21.0471 0 50.2516C0 75.9515 16.0644 94.3328 40.3579 97.4853C42.7909 97.8016 45.3046 97.9664 47.8946 97.9687L80.0861 65.7772L74.8833 60.5744L45.0426 90.4154C23.5891 88.9619 8.6671 73.4417 8.6671 50.1212C8.6671 24.828 24.9054 8.53052 48.5224 8.53052C64.4102 8.53052 78.6732 17.3894 82.8741 31.6076H92.1781C88.0208 12.6433 69.7061 0.96875 48.379 0.96875Z" fill="white"/>
</svg>
