<svg width="14" height="14" fill="none" xmlns="http://www.w3.org/2000/svg"><path d="M4.788 14c-.763 0-1.398-.642-1.398-1.413 0-.77.635-1.413 1.398-1.413.763 0 1.398.643 1.398 1.413A1.39 1.39 0 0 1 4.788 14zm5.762 0c-.762 0-1.398-.642-1.398-1.413 0-.77.636-1.413 1.399-1.413.762 0 1.398.643 1.398 1.413A1.39 1.39 0 0 1 10.551 14zM4.364 8.434h7.585a.414.414 0 0 0 .424-.342l1.186-5.652a.335.335 0 0 0-.085-.342c-.084-.086-.212-.171-.339-.171H3.093L2.754.343A.414.414 0 0 0 2.33 0H.424C.169 0 0 .171 0 .428c0 .214.17.428.424.428H1.99l1.484 7.107c-.297.214-.467.6-.467 1.028 0 .77.636 1.413 1.399 1.413h7.584a.427.427 0 0 0 .424-.428c0-.257-.17-.429-.424-.429H4.364a.564.564 0 0 1-.55-.556c.042-.3.254-.557.55-.557z" fill="#fff"/></svg>