<svg width="14" height="14" fill="none" xmlns="http://www.w3.org/2000/svg"><path fill-rule="evenodd" clip-rule="evenodd" d="M13.711 6.183l-.944-1.173a1.312 1.312 0 0 1-.27-.673L12.33 2.85a1.321 1.321 0 0 0-1.163-1.164L9.68 1.521a1.332 1.332 0 0 1-.682-.288L7.828.29a1.316 1.316 0 0 0-1.644 0l-1.173.945a1.312 1.312 0 0 1-.673.271l-1.486.166a1.32 1.32 0 0 0-1.164 1.163l-.166 1.487c-.026.262-.14.49-.288.682l-.945 1.17a1.316 1.316 0 0 0 0 1.644l.945 1.172c.149.193.245.42.271.674l.166 1.486a1.32 1.32 0 0 0 1.163 1.163l1.487.167c.262.026.49.139.682.288l1.172.944a1.316 1.316 0 0 0 1.643 0l1.173-.944c.192-.15.42-.245.674-.272l1.485-.166a1.32 1.32 0 0 0 1.164-1.163l.166-1.487c.027-.262.14-.49.288-.682l.945-1.172a1.316 1.316 0 0 0 0-1.643l-.002.001zm-8.023 4.326L2.625 7.446l1.313-1.312 1.75 1.75 4.375-4.375 1.312 1.356-5.687 5.644z" fill="#219653"/></svg>